<svg xmlns="http://www.w3.org/2000/svg" width="50" height="49.998" viewBox="0 0 50 49.998">
  <path id="パス_12302" data-name="パス 12302" d="M545.548,327.512a25,25,0,1,0,25,25A25.026,25.026,0,0,0,545.548,327.512Zm10.841,8.891c.064-.993.5-1.123.64-1.167a1.357,1.357,0,0,1,.379-.048,3.913,3.913,0,0,1,2.443,1.1,11.736,11.736,0,0,1,2.143,8.556c-.545,4.8-4.408,7.637-6.985,7.837a1.106,1.106,0,0,1-.4-.025c-.028-.034-.15-.28.254-1.75a43.753,43.753,0,0,0,1.522-13.138C556.374,337.149,556.368,336.691,556.389,336.4Zm-25.154-.119a3.9,3.9,0,0,1,2.44-1.1,1.339,1.339,0,0,1,.379.048c.142.044.577.176.644,1.167.019.263.013.664.006,1.173l0,.188a43.7,43.7,0,0,0,1.519,13.138c.407,1.47.283,1.713.26,1.741a.857.857,0,0,1-.4.035c-2.579-.2-6.442-3.037-6.987-7.834A11.754,11.754,0,0,1,531.236,336.284Zm14.312,38.561a22.2,22.2,0,0,1-4.2-.4c1.422-2.639,2.7-5.07,3.646-6.926l.032-.063L545,367.39a31.05,31.05,0,0,1-1.89-4.159,6.123,6.123,0,0,0-.8-1.838l-.17-.265-.082.3A80.945,80.945,0,0,0,539.48,374a22.315,22.315,0,0,1-12.957-33.172,13.442,13.442,0,0,0,3.241,11.4,13.028,13.028,0,0,0,7.869,3.3c2.105,2.095,3.261,3.117,3.862,3.607a7.327,7.327,0,0,1,2.5,3.869c.327,1.321,4.206,8.591,5.74,11.439A22.174,22.174,0,0,1,545.548,374.845Zm-1.257-16.1a1.329,1.329,0,0,1,.83-.612,1.29,1.29,0,0,1,.331-.04,1.354,1.354,0,0,1,1.155,2.055,1.326,1.326,0,0,1-.833.612,1.31,1.31,0,0,1-.325.041,1.354,1.354,0,0,1-1.158-2.055Zm23.592-6.239A22.372,22.372,0,0,1,551.608,374c-.6-6.881-4.246-18.291-4.284-18.412a.75.75,0,0,0-.658-.513c-.2-.011-4.963-.332-6.5-3.584-1.329-2.811-2.208-7.711-2.767-15.427a3.809,3.809,0,0,0-2.245-3.314,22.266,22.266,0,0,1,20.79,0,3.81,3.81,0,0,0-2.25,3.316c-.557,7.712-1.435,12.613-2.765,15.427a5.83,5.83,0,0,1-3.227,2.81l-.218.09.184.148a1.624,1.624,0,0,1,.529.775c0,.016.49,1.536,1.136,3.782l.072.2.186-.16c.853-.694,2.149-1.9,3.865-3.607a13.025,13.025,0,0,0,7.87-3.3,13.436,13.436,0,0,0,3.237-11.419A22.187,22.187,0,0,1,567.883,352.508Z" transform="translate(-520.549 -327.512)" fill="#070607"/>
</svg>
