<svg xmlns="http://www.w3.org/2000/svg" width="300" height="51.654" viewBox="0 0 300 51.654">
  <g id="グループ_3461" data-name="グループ 3461" transform="translate(-170.153 -156.92)">
    <path id="パス_12260" data-name="パス 12260" d="M177.949,232.172v3.993a3.131,3.131,0,0,0,.175,1.065,2.313,2.313,0,0,0,1.379,1.405,3.594,3.594,0,0,0,2.376,0,2.413,2.413,0,0,0,.86-.56,2.366,2.366,0,0,0,.518-.845,3.16,3.16,0,0,0,.171-1.065v-3.993H182v3.94a1.512,1.512,0,0,1-.1.558,1.4,1.4,0,0,1-.268.447,1.282,1.282,0,0,1-.417.293,1.243,1.243,0,0,1-.523.105,1.3,1.3,0,0,1-.527-.105,1.249,1.249,0,0,1-.416-.293,1.326,1.326,0,0,1-.274-.447,1.537,1.537,0,0,1-.1-.558v-3.94Z" transform="translate(-3.135 -30.264)" fill="#fff"/>
    <path id="パス_12261" data-name="パス 12261" d="M193.841,233.5v-1.324h-4.416v6.5h4.582V237.35h-3.15v-1.322h2.815v-1.322h-2.815V233.5Z" transform="translate(-7.751 -30.264)" fill="#fff"/>
    <path id="パス_12262" data-name="パス 12262" d="M202.11,235.138a2.9,2.9,0,0,0-.722-.311c-.258-.075-.5-.148-.719-.221a1.941,1.941,0,0,1-.555-.267.516.516,0,0,1-.223-.449.5.5,0,0,1,.094-.311.618.618,0,0,1,.241-.207,1.082,1.082,0,0,1,.31-.115,1.476,1.476,0,0,1,.32-.038,1.706,1.706,0,0,1,.567.106,1,1,0,0,1,.469.326l.988-1.076a2.485,2.485,0,0,0-.93-.522,3.663,3.663,0,0,0-1.065-.155,3.277,3.277,0,0,0-.928.132,2.4,2.4,0,0,0-.793.4,2.063,2.063,0,0,0-.554.659,2,2,0,0,0-.2.919,1.483,1.483,0,0,0,.225.872,1.742,1.742,0,0,0,.563.533,3.232,3.232,0,0,0,.737.321c.262.08.5.16.735.24a2.027,2.027,0,0,1,.561.289.581.581,0,0,1,.14.768.727.727,0,0,1-.229.209,1.111,1.111,0,0,1-.321.126,1.625,1.625,0,0,1-.355.039,1.6,1.6,0,0,1-.692-.16,1.486,1.486,0,0,1-.557-.453l-1.019,1.119a2.911,2.911,0,0,0,1.012.624,3.468,3.468,0,0,0,1.174.193,3.543,3.543,0,0,0,.96-.13,2.266,2.266,0,0,0,.8-.395,1.918,1.918,0,0,0,.549-.67,2.066,2.066,0,0,0,.2-.945,1.656,1.656,0,0,0-.219-.91A1.692,1.692,0,0,0,202.11,235.138Z" transform="translate(-11.277 -30.154)" fill="#fff"/>
    <path id="パス_12263" data-name="パス 12263" d="M211.872,236.112a1.59,1.59,0,0,1-.1.558,1.334,1.334,0,0,1-.27.447,1.281,1.281,0,0,1-.415.293,1.261,1.261,0,0,1-.523.105,1.3,1.3,0,0,1-.528-.105,1.243,1.243,0,0,1-.415-.293,1.307,1.307,0,0,1-.274-.447,1.618,1.618,0,0,1-.1-.558v-3.94h-1.434v3.993a3.131,3.131,0,0,0,.176,1.065,2.332,2.332,0,0,0,.521.845,2.369,2.369,0,0,0,.857.56,3.6,3.6,0,0,0,2.38,0,2.377,2.377,0,0,0,.858-.56,2.41,2.41,0,0,0,.518-.845,3.146,3.146,0,0,0,.175-1.065v-3.993h-1.434Z" transform="translate(-15.149 -30.264)" fill="#fff"/>
    <path id="パス_12264" data-name="パス 12264" d="M220.727,238.488a4,4,0,0,0,1.4.24,6.82,6.82,0,0,0,1.4-.146,5.233,5.233,0,0,0,1.323-.478v-3.4h-2.544v1.323h1.166v1.055a3.015,3.015,0,0,1-.539.216,2.725,2.725,0,0,1-.811.105,2.143,2.143,0,0,1-.832-.156,1.763,1.763,0,0,1-.633-.435,1.806,1.806,0,0,1-.408-.661,2.462,2.462,0,0,1,0-1.676,1.866,1.866,0,0,1,1.041-1.1,2.143,2.143,0,0,1,.832-.156,2.356,2.356,0,0,1,.919.156,2,2,0,0,1,.661.459l1.009-1.1a2.776,2.776,0,0,0-1.153-.648,5.23,5.23,0,0,0-1.436-.185,4.043,4.043,0,0,0-1.4.236,3.221,3.221,0,0,0-1.113.686,3.067,3.067,0,0,0-.728,1.078,3.943,3.943,0,0,0,0,2.829,3.057,3.057,0,0,0,.728,1.078A3.193,3.193,0,0,0,220.727,238.488Z" transform="translate(-19.494 -30.154)" fill="#fff"/>
    <rect id="長方形_12538" data-name="長方形 12538" width="1.43" height="6.5" transform="translate(206.603 201.908)" fill="#fff"/>
    <path id="パス_12265" data-name="パス 12265" d="M187.772,205.768c.056-.423.126-.863.2-1.307a16.558,16.558,0,0,1-10.587-18.479,13.206,13.206,0,0,1-.757-2.4,17.884,17.884,0,0,0,11.142,22.182Z" transform="translate(-2.28 -10.724)" fill="#fff"/>
    <path id="パス_12266" data-name="パス 12266" d="M201.046,163.893a16.447,16.447,0,0,1,6.317,1.256,4.23,4.23,0,0,1,.625-1.155,17.873,17.873,0,0,0-13.892,0,4.249,4.249,0,0,1,.622,1.155A16.469,16.469,0,0,1,201.046,163.893Z" transform="translate(-9.629 -2.281)" fill="#fff"/>
    <path id="パス_12267" data-name="パス 12267" d="M202.329,221.354a18.294,18.294,0,0,0,2.027.117,18.058,18.058,0,0,0,2.015-.117c-.213-.4-.429-.817-.661-1.245-.446.036-.9.06-1.354.06s-.913-.023-1.363-.062C202.767,220.535,202.545,220.954,202.329,221.354Z" transform="translate(-12.94 -25.412)" fill="#fff"/>
    <path id="パス_12268" data-name="パス 12268" d="M227.436,188.9a17.872,17.872,0,0,0-.814-5.343,12.929,12.929,0,0,1-.754,2.4,16.539,16.539,0,0,1-10.592,18.5c.076.445.147.884.2,1.307A17.9,17.9,0,0,0,227.436,188.9Z" transform="translate(-18.147 -10.711)" fill="#fff"/>
    <path id="パス_12269" data-name="パス 12269" d="M191.417,199.45a21.265,21.265,0,1,0-21.264-21.265A21.29,21.29,0,0,0,191.417,199.45ZM201.2,163.3a1.3,1.3,0,0,1,.359-.048,3.474,3.474,0,0,1,2.187.983,10.175,10.175,0,0,1,1.855,7.405c-.476,4.173-3.837,6.636-6.088,6.81-.265.023-.4-.022-.439-.063-.125-.152-.061-.69.191-1.6a37.378,37.378,0,0,0,1.3-11.2c-.012-.514-.017-.918,0-1.176C200.631,163.467,201.06,163.338,201.2,163.3Zm-9.784-4.334a19.092,19.092,0,0,1,9.183,2.34,3.137,3.137,0,0,0-2.1,2.827c-.481,6.613-1.233,10.819-2.379,13.237a5.187,5.187,0,0,1-2.819,2.463,1.56,1.56,0,0,1,.489.72c.054.149.448,1.412.971,3.24a.254.254,0,0,0,.036-.027c1.1-.9,2.822-2.605,3.325-3.109a11.082,11.082,0,0,0,6.7-2.792,11.4,11.4,0,0,0,2.613-10.277,19.062,19.062,0,0,1,3.2,10.6,19.256,19.256,0,0,1-14.152,18.54c-.461-5.771-3.525-15.438-3.666-15.866a.505.505,0,0,0-.456-.355c-.175-.01-4.315-.284-5.665-3.139-1.145-2.417-1.9-6.624-2.376-13.237a3.147,3.147,0,0,0-2.1-2.825A19.112,19.112,0,0,1,191.417,158.961Zm.225,26.4a1.416,1.416,0,0,1-.314.04,1.28,1.28,0,0,1-.307-2.522,1.268,1.268,0,0,1,.307-.037,1.278,1.278,0,0,1,.314,2.519ZM179.076,164.23a3.463,3.463,0,0,1,2.185-.983,1.241,1.241,0,0,1,.357.049c.142.042.575.171.635,1.1.02.257.014.663,0,1.175a37.367,37.367,0,0,0,1.3,11.2c.25.913.314,1.453.193,1.6-.036.041-.174.087-.442.063-2.249-.174-5.614-2.637-6.087-6.809A10.16,10.16,0,0,1,179.076,164.23Zm-3.7,3.372A11.424,11.424,0,0,0,178,177.858a11.093,11.093,0,0,0,6.7,2.792c.5.5,2.219,2.205,3.329,3.109a6.431,6.431,0,0,1,2.178,3.377c.28,1.128,3.721,7.578,4.975,9.9a19.272,19.272,0,0,1-7.535,0c.692-1.289,2.063-3.846,3.194-6.067a28.3,28.3,0,0,1-1.628-3.587,4.971,4.971,0,0,0-.669-1.534,67.837,67.837,0,0,0-2.208,10.874,19.207,19.207,0,0,1-10.956-29.12Z" transform="translate(0)" fill="#fff"/>
    <path id="パス_12270" data-name="パス 12270" d="M450.633,186.562l-6.361-5.186v-3.247h5.475v-2.8h-5.475v-8.517h-2.8v8.517h-6.281v2.8h6.281v3.582l-7.4,14.8,2.507,1.253,4.895-9.779v20.467h2.8V184.995l4.589,3.742Z" transform="translate(-106.139 -3.976)" fill="#fff"/>
    <path id="パス_12271" data-name="パス 12271" d="M478.732,214.677v13.95h7.05v-13.95h-2.8v11.145h-1.441V214.677Z" transform="translate(-124.101 -23.228)" fill="#fff"/>
    <path id="パス_12272" data-name="パス 12272" d="M487.777,188.923l-7.24-8.939h4.922l-13.316-16.743-13.322,16.743h4.924l-7.236,8.939h5.347l-8.728,10.613h13.653v-2.8h-7.717l8.726-10.614h-5.407l7.239-8.939h-4.983l7.5-9.435,7.506,9.435H474.66l7.237,8.939h-5.409l8.735,10.614H477.5v2.8H491.16l-8.733-10.613Z" transform="translate(-113.804 -2.542)" fill="#fff"/>
    <path id="パス_12273" data-name="パス 12273" d="M573.322,213.326V200.8H549.638v12.529ZM552.444,203.6h18.072v6.919H552.444Z" transform="translate(-152.618 -17.646)" fill="#fff"/>
    <rect id="長方形_12539" data-name="長方形 12539" width="2.804" height="7.487" transform="matrix(0.507, -0.862, 0.862, 0.507, 382.667, 168.052)" fill="#fff"/>
    <path id="パス_12274" data-name="パス 12274" d="M549.156,175.628h9.315v5.59H544.665v2.8h29.161v-2.8h-12.55v-5.59H572v-2.8H561.276v-5.857h-2.805v5.857h-7.6l2.121-3.476-2.395-1.46-6.65,10.9,2.388,1.461Z" transform="translate(-150.328 -4.041)" fill="#fff"/>
    <path id="パス_12275" data-name="パス 12275" d="M521.924,218.691l1.823,2.129,6.532-5.6,4.361,5.275H564.97v-2.8H535.954l-4.1-4.967V196.714h-8.567v2.8h5.763v13.068Z" transform="translate(-141.472 -16.004)" fill="#fff"/>
    <path id="パス_12276" data-name="パス 12276" d="M645.279,168.884H605.6v40.387h39.675Zm-2.8,37.584h-34.07V171.69h34.07Z" transform="translate(-175.126 -4.812)" fill="#fff"/>
    <path id="パス_12277" data-name="パス 12277" d="M643.31,184.633H631.019V182.1h10.235v-2.8H631.019v-2.542h-2.8V179.3H617.9v2.8h10.32v2.531H615.549v2.8H643.31Z" transform="translate(-179.125 -7.978)" fill="#fff"/>
    <path id="パス_12278" data-name="パス 12278" d="M627.662,207.776v7.845h2.8v-9.271H640.3v-9.363H617.717v9.363h7.035l-10.577,7.076,1.56,2.331Zm-7.142-4.231v-3.754H637.5v3.754Z" transform="translate(-178.573 -16.114)" fill="#fff"/>
    <path id="パス_12279" data-name="パス 12279" d="M653.615,214.03l-2.13,2.838-4.441-2.956-1.553,2.335,9.5,6.32,1.551-2.336-2.714-1.808,2.032-2.711Z" transform="translate(-191.167 -22.92)" fill="#fff"/>
    <path id="パス_12280" data-name="パス 12280" d="M360.934,208.447V184.995l4.588,3.742,1.774-2.175-6.361-5.185v-3.248h5.474v-2.8h-5.474v-8.517h-2.8v8.517H351.85v2.8h6.281v3.583l-7.4,14.8,2.5,1.252,4.893-9.78v20.468Z" transform="translate(-72.624 -3.976)" fill="#fff"/>
    <path id="パス_12281" data-name="パス 12281" d="M383.237,190.806h-2.8V217.8h24.9V215h-22.1Z" transform="translate(-84.569 -13.628)" fill="#fff"/>
    <path id="パス_12282" data-name="パス 12282" d="M387.785,176.119v24.855h17.159V176.119H391.3l2.463-3.258h12.7v-2.806H395.878l2.1-2.775-2.264-1.653-3.344,4.428h-9.133v2.806h7.016Zm2.8,2.8H402.14v4.85H390.589Zm0,7.653H402.14v4.36H390.589Zm0,7.163H402.14v4.429H390.589Z" transform="translate(-85.695 -3.502)" fill="#fff"/>
    <path id="パス_12283" data-name="パス 12283" d="M264.034,213.17l1.046,1.479,8.676-6.13,5.937,4.2H268.113v1.808h11.6v-1.792l2.711,1.918,1.048-1.479-9.719-6.864Z" transform="translate(-37.756 -19.862)" fill="#fff"/>
    <path id="パス_12284" data-name="パス 12284" d="M265.274,226.176h5.142l-3.4,7.245,13.284-1.908,1.359,2.036,1.5-1.006-3.4-5.086-1.5,1,.927,1.386-9.108,1.307,2.34-4.978h11.081v-1.808h-18.22Z" transform="translate(-38.255 -27.126)" fill="#fff"/>
    <path id="パス_12285" data-name="パス 12285" d="M308.783,218.918l-3.713-3.892,3.908-5.36h-4.116V206.7h-1.806v2.97h-2.84v1.807h5.207l-6.127,8.4,1.46,1.066,2.3-3.153v8.294h1.806v-8.655l2.613,2.74Z" transform="translate(-51.938 -20.018)" fill="#fff"/>
    <path id="パス_12286" data-name="パス 12286" d="M314.441,223.593V225.4H325.7v-1.807h-4.767v-9.315h4.118v-1.807h-4.118v-5.777h-1.806v5.777h-4.013v1.807h4.013v9.315Z" transform="translate(-58.029 -20.018)" fill="#fff"/>
    <path id="パス_12287" data-name="パス 12287" d="M283.83,174.629v-1.808h-5.111v-3.484h4.067V167.53h-4.067v-3.212h-1.81v3.212h-2v-2.568H273.1v3.22l-1.768,2.945,1.552.931,1.634-2.721h2.395v3.484h-5.057v.218l-2.676-2.183v-.949h2.479V168.1h-2.479v-3.781h-1.809V168.1h-2.879v1.808h2.879v1.625l-3.273,6.549,1.615.808,1.657-3.316v8.261h1.809V173.191l1.909,1.555.767-.941v.824h4.89l-5.706,6.75,1.383,1.167,4.49-5.314v6.6h1.81v-6.508l4.409,5.218,1.379-1.167-5.7-6.75Z" transform="translate(-37.781 -2.975)" fill="#fff"/>
    <path id="パス_12288" data-name="パス 12288" d="M312.528,171.3l4.913,12.828,3.868-3.573-1.229-1.328-1.9,1.76-3.84-10.024v-1.873h5.455v-1.808h-1.741l1.333-.837-1.721-2.741-1.533.964,1.645,2.614h-3.439v-3.505h-1.809v3.505h-11.07v1.808h11.07Z" transform="translate(-52.807 -2.729)" fill="#fff"/>
    <path id="パス_12289" data-name="パス 12289" d="M312.629,186.52l-.363-1.77-4.84,1.007v-5.408h3.734v-1.808h-9.38v1.808h3.836v5.785l-4.721.981.368,1.768Z" transform="translate(-52.581 -8.695)" fill="#fff"/>
  </g>
</svg>
