<svg id="logo" xmlns="http://www.w3.org/2000/svg" width="333.033" height="35" viewBox="0 0 333.033 35">
  <path id="パス_12290" data-name="パス 12290" d="M183.575,351.34a12.232,12.232,0,0,1-.4,3.013,8.639,8.639,0,0,1-1.319,2.879,7.186,7.186,0,0,1-2.417,2.158,8.59,8.59,0,0,1-7.392,0,7.11,7.11,0,0,1-2.415-2.158,8.822,8.822,0,0,1-1.325-2.879,12.222,12.222,0,0,1-.392-3.013V332.25h-4.225V352a12.881,12.881,0,0,0,.923,4.949,11.691,11.691,0,0,0,2.556,3.848A11.215,11.215,0,0,0,171,363.3a13.294,13.294,0,0,0,9.5,0,11.28,11.28,0,0,0,3.827-2.509,11.693,11.693,0,0,0,2.545-3.848A12.737,12.737,0,0,0,187.8,352V332.25h-4.222Z" transform="translate(-163.694 -329.183)" fill="#070607"/>
  <path id="パス_12291" data-name="パス 12291" d="M223.43,349.45h14.777v-3.958H223.43v-9.285H239.3V332.25H219.2v31.141H240.1v-3.957H223.43Z" transform="translate(-183.269 -329.183)" fill="#070607"/>
  <path id="パス_12292" data-name="パス 12292" d="M280.345,347.148a15.852,15.852,0,0,0-3.689-1.473,34.161,34.161,0,0,1-3.694-1.185,8.924,8.924,0,0,1-2.841-1.716,3.932,3.932,0,0,1-1.145-3.035,4.741,4.741,0,0,1,.288-1.537,4.223,4.223,0,0,1,.988-1.564,5.267,5.267,0,0,1,1.868-1.184,7.953,7.953,0,0,1,2.93-.464,7.126,7.126,0,0,1,3.3.746,5.7,5.7,0,0,1,2.244,1.982l3.426-3.125a8.342,8.342,0,0,0-4.086-2.859,16.749,16.749,0,0,0-4.882-.7,12.185,12.185,0,0,0-4.816.859,10.175,10.175,0,0,0-3.276,2.134,8.3,8.3,0,0,0-2.465,5.716,8.836,8.836,0,0,0,1.144,4.816,9.084,9.084,0,0,0,2.836,2.837,15.032,15.032,0,0,0,3.7,1.648c1.334.395,2.562.807,3.694,1.23a9.949,9.949,0,0,1,2.837,1.583,3.373,3.373,0,0,1,1.139,2.748,4.349,4.349,0,0,1-.569,2.248,5.418,5.418,0,0,1-1.473,1.625,6.528,6.528,0,0,1-2.007.99,7.481,7.481,0,0,1-2.15.33,8.756,8.756,0,0,1-3.672-.813,6.912,6.912,0,0,1-2.923-2.529l-3.476,2.99a9.3,9.3,0,0,0,4.267,3.252,15.3,15.3,0,0,0,5.672,1.056,13.268,13.268,0,0,0,4.219-.658,10.238,10.238,0,0,0,3.43-1.892,8.909,8.909,0,0,0,2.313-3.035,9.379,9.379,0,0,0,.86-4.047,7.508,7.508,0,0,0-1.146-4.419A8.6,8.6,0,0,0,280.345,347.148Z" transform="translate(-198.915 -328.753)" fill="#070607"/>
  <path id="パス_12293" data-name="パス 12293" d="M331.075,351.34a12.291,12.291,0,0,1-.394,3.013,8.63,8.63,0,0,1-1.32,2.879,7.185,7.185,0,0,1-2.42,2.158,8.582,8.582,0,0,1-7.388,0,7.1,7.1,0,0,1-2.415-2.158,8.81,8.81,0,0,1-1.326-2.879,12.264,12.264,0,0,1-.395-3.013V332.25h-4.223V352a12.833,12.833,0,0,0,.924,4.949,11.675,11.675,0,0,0,2.555,3.848A11.2,11.2,0,0,0,318.5,363.3a13.292,13.292,0,0,0,9.5,0,11.313,11.313,0,0,0,3.826-2.509,11.729,11.729,0,0,0,2.547-3.848A12.774,12.774,0,0,0,335.3,352V332.25h-4.222Z" transform="translate(-215.709 -329.183)" fill="#070607"/>
  <path id="パス_12294" data-name="パス 12294" d="M381.04,349.5h6.906v8.663a11.872,11.872,0,0,1-3.41,1.209,20.653,20.653,0,0,1-4.243.418,11.99,11.99,0,0,1-4.8-.946,11.751,11.751,0,0,1-3.821-2.617,12.206,12.206,0,0,1-2.557-3.935,12.946,12.946,0,0,1-.921-4.9,13.727,13.727,0,0,1,.837-4.817,11.641,11.641,0,0,1,2.377-3.94,11.315,11.315,0,0,1,8.529-3.649,14.13,14.13,0,0,1,4.532.727,11.05,11.05,0,0,1,4.091,2.573l2.989-3.21a12.931,12.931,0,0,0-4.571-2.97,19.385,19.385,0,0,0-7.041-1.079,16.758,16.758,0,0,0-6.555,1.255,15.246,15.246,0,0,0-5.12,3.452,15.919,15.919,0,0,0-3.347,5.189,17.111,17.111,0,0,0-1.209,6.469,17.666,17.666,0,0,0,1.122,6.264,15.169,15.169,0,0,0,8.488,8.774,17.89,17.89,0,0,0,7.06,1.32,28.155,28.155,0,0,0,3.011-.174,25.781,25.781,0,0,0,3.17-.55,28.12,28.12,0,0,0,3.013-.9,13.934,13.934,0,0,0,2.593-1.234V345.547H381.04Z" transform="translate(-234.229 -328.752)" fill="#070607"/>
  <rect id="長方形_12540" data-name="長方形 12540" width="4.222" height="31.141" transform="translate(170.039 3.067)" fill="#070607"/>
  <path id="パス_12295" data-name="パス 12295" d="M496.707,336.211V332.25H474.233v3.961h17.2l-17.726,23.223v3.957H496.97v-3.957h-17.9Z" transform="translate(-273.018 -329.183)" fill="#070607"/>
  <path id="パス_12296" data-name="パス 12296" d="M592.342,349.45h14.779v-3.958H592.342v-9.285h15.874V332.25h-20.1v31.141h20.889v-3.957H592.342Z" transform="translate(-313.365 -329.183)" fill="#070607"/>
  <path id="パス_12297" data-name="パス 12297" d="M659.208,332.25v25.6h-.087l-17.153-25.6h-5.544v31.141h4.225v-25.6h.087l17.331,25.6h5.365V332.25Z" transform="translate(-330.4 -329.183)" fill="#070607"/>
  <path id="パス_12298" data-name="パス 12298" d="M526.026,351.643a13.394,13.394,0,0,1,.211-2.344l.005-.029-.011-.027a10.323,10.323,0,0,1-.605-1.919l-.076-.362-.111.352a14.538,14.538,0,0,0,9.057,18.042l.112.039.016-.117c.048-.342.1-.7.164-1.056l.014-.079-.076-.028A13.351,13.351,0,0,1,526.026,351.643Z" transform="translate(-291.029 -334.371)" fill="#070607"/>
  <path id="パス_12299" data-name="パス 12299" d="M549.254,334.033l.034-.1a3.226,3.226,0,0,1,.488-.907l.076-.1-.116-.049a14.537,14.537,0,0,0-11.3,0l-.115.048.076.1a3.29,3.29,0,0,1,.489.906l.034.1.094-.039a13.269,13.269,0,0,1,10.141,0Z" transform="translate(-295.805 -329.004)" fill="#070607"/>
  <path id="パス_12300" data-name="パス 12300" d="M545.1,374.644l-.03.056c-.183.344-.362.681-.536,1l-.067.127.142.016a14.36,14.36,0,0,0,1.648.1,14.673,14.673,0,0,0,1.64-.093l.141-.016-.3-.566c-.1-.186-.2-.376-.3-.567l-.03-.055-.063,0a12.249,12.249,0,0,1-2.179,0Z" transform="translate(-297.972 -344.133)" fill="#070607"/>
  <path id="パス_12301" data-name="パス 12301" d="M562.76,349.246l.005.029a13.512,13.512,0,0,1,.215,2.36,13.346,13.346,0,0,1-8.71,12.475l-.075.028.014.079c.055.321.108.666.162,1.055l.016.117.111-.039a14.536,14.536,0,0,0,9.062-18.059l-.11-.352-.077.362a10.467,10.467,0,0,1-.6,1.921Z" transform="translate(-301.402 -334.363)" fill="#070607"/>
  <path id="パス_12302" data-name="パス 12302" d="M537.823,327.512A17.274,17.274,0,1,0,555.1,344.784,17.293,17.293,0,0,0,537.823,327.512Zm7.491,6.143c.044-.686.344-.776.442-.807a.939.939,0,0,1,.262-.033,2.7,2.7,0,0,1,1.688.757,8.109,8.109,0,0,1,1.481,5.912c-.377,3.319-3.046,5.277-4.827,5.415a.764.764,0,0,1-.275-.017c-.019-.023-.1-.194.175-1.209a30.234,30.234,0,0,0,1.052-9.078C545.3,334.171,545.3,333.855,545.314,333.655Zm-17.381-.082a2.693,2.693,0,0,1,1.686-.757.925.925,0,0,1,.262.033c.1.03.4.122.445.807.013.182.009.459,0,.81v.13a30.2,30.2,0,0,0,1.049,9.078c.281,1.016.2,1.183.179,1.2a.594.594,0,0,1-.279.024c-1.782-.139-4.451-2.1-4.828-5.413A8.122,8.122,0,0,1,527.933,333.573Zm9.89,26.645a15.341,15.341,0,0,1-2.9-.278c.983-1.824,1.867-3.5,2.52-4.786l.022-.043-.022-.044a21.452,21.452,0,0,1-1.306-2.874,4.232,4.232,0,0,0-.554-1.27l-.118-.183-.057.21a55.928,55.928,0,0,0-1.778,8.684,15.419,15.419,0,0,1-8.953-22.922,9.288,9.288,0,0,0,2.239,7.878,9,9,0,0,0,5.437,2.281c1.455,1.447,2.253,2.154,2.668,2.492a5.064,5.064,0,0,1,1.727,2.674c.226.913,2.906,5.936,3.966,7.9A15.319,15.319,0,0,1,537.823,360.218Zm-.869-11.124a.918.918,0,0,1,.574-.423.892.892,0,0,1,.229-.028.935.935,0,0,1,.8,1.42.916.916,0,0,1-.575.423.906.906,0,0,1-.225.029.935.935,0,0,1-.8-1.42Zm16.3-4.311a15.459,15.459,0,0,1-11.246,14.853c-.416-4.755-2.934-12.639-2.96-12.722a.518.518,0,0,0-.455-.355c-.14-.008-3.429-.229-4.494-2.477-.919-1.942-1.526-5.328-1.912-10.66a2.632,2.632,0,0,0-1.551-2.29,15.385,15.385,0,0,1,14.365,0,2.633,2.633,0,0,0-1.555,2.291c-.385,5.329-.992,8.715-1.91,10.66a4.028,4.028,0,0,1-2.229,1.941l-.151.062.127.1a1.121,1.121,0,0,1,.366.535c0,.011.339,1.062.785,2.613l.05.137.129-.111c.59-.48,1.485-1.315,2.67-2.492a9,9,0,0,0,5.438-2.281,9.284,9.284,0,0,0,2.237-7.891A15.331,15.331,0,0,1,553.256,344.784Z" transform="translate(-289.537 -327.512)" fill="#070607"/>
</svg>
