<svg xmlns="http://www.w3.org/2000/svg" xmlns:xlink="http://www.w3.org/1999/xlink" width="86.756" height="100" viewBox="0 0 86.756 100">
  <defs>
    <clipPath id="clip-path">
      <rect id="長方形_12575" data-name="長方形 12575" width="86.756" height="100" fill="#fff"/>
    </clipPath>
  </defs>
  <g id="グループ_3769" data-name="グループ 3769" transform="translate(0 0)">
    <g id="グループ_3768" data-name="グループ 3768" transform="translate(0 0)" clip-path="url(#clip-path)">
      <path id="パス_12319" data-name="パス 12319" d="M18.562,60.713s6.1-11.444,8.23-15.633l.072-.144-.072-.142a70.072,70.072,0,0,1-4.265-9.389,13.846,13.846,0,0,0-1.81-4.149l-.385-.6-.186.685c-2.309,8.479-5.809,28.367-5.809,28.367L13.775,64.6l2.455.6Z" transform="translate(15.353 34.171)" fill="#fff"/>
      <path id="パス_12320" data-name="パス 12320" d="M41.677.768A8.593,8.593,0,0,0,36.6,8.249c-1.258,17.407-3.242,28.471-6.24,34.823-1.3,2.747-3.751,4.883-7.283,6.342l-.493.2.414.334A3.646,3.646,0,0,1,24.189,51.7c.011.036,1.108,3.468,2.565,8.537l.165.448.421-.362c1.926-1.567,4.851-4.295,8.723-8.141,2.757-.2,11.607-1.334,17.764-7.452,4.724-4.7,9.228-14.5,7.306-25.774C54.212-5.654,41.677.768,41.677.768M55.339,28.052C54.108,38.894,45.39,45.29,39.573,45.741a2.5,2.5,0,0,1-.9-.057c-.063-.076-.338-.632.573-3.948a98.847,98.847,0,0,0,3.436-29.655c-.027-1.387-.042-2.419.006-3.072.144-2.239,1.123-2.535,1.444-2.635a3.05,3.05,0,0,1,.852-.108A8.832,8.832,0,0,1,50.5,8.74c5.06,6.631,5.422,14.163,4.836,19.312" transform="translate(25.169 0.014)" fill="#fff"/>
      <path id="パス_12321" data-name="パス 12321" d="M57.065,93.891c-.541-11.8-9.583-41.283-9.67-41.555a1.688,1.688,0,0,0-1.487-1.159c-.455-.027-11.2-.751-14.677-8.09-3-6.344-4.984-17.407-6.244-34.823A8.593,8.593,0,0,0,19.919.786S7.307-5.775.448,19.01C-1.455,30.259,3.04,40.039,7.76,44.742c6.153,6.115,15,7.251,17.762,7.452,4.751,4.73,7.359,7.037,8.716,8.141A16.56,16.56,0,0,1,39.88,69.07c.738,2.979,9.49,19.391,12.956,25.819L55.682,100l1.427-.4s.068-3.269-.044-5.707M22.919,45.677a1.924,1.924,0,0,1-.907.078C16.191,45.3,7.472,38.9,6.242,28.073c-.586-5.155-.22-12.694,4.842-19.319A8.8,8.8,0,0,1,16.59,6.282a3.055,3.055,0,0,1,.856.106c.321.1,1.3.4,1.453,2.635.042.6.03,1.5.013,2.647l0,.427A98.561,98.561,0,0,0,22.336,41.75c.918,3.316.639,3.863.584,3.927M45.778,62.621A2.989,2.989,0,0,1,43.9,64a2.831,2.831,0,0,1-.732.093,3.054,3.054,0,0,1-2.616-4.639,3,3,0,0,1,1.876-1.379,2.81,2.81,0,0,1,.746-.091,3.053,3.053,0,0,1,2.607,4.635" transform="translate(0 0)" fill="#fff"/>
    </g>
  </g>
</svg>
