<svg xmlns="http://www.w3.org/2000/svg" width="125.638" height="80" viewBox="0 0 125.638 80">
  <g id="ブルドーザーアイコン" transform="translate(0 -92.992)">
    <path id="パス_12322" data-name="パス 12322" d="M37.378,329.643a10.964,10.964,0,1,0,10.96,10.969A10.969,10.969,0,0,0,37.378,329.643Zm0,14.818a3.853,3.853,0,1,1,3.849-3.849A3.858,3.858,0,0,1,37.378,344.461Z" transform="translate(-19.929 -178.58)" fill="#fff"/>
    <path id="パス_12323" data-name="パス 12323" d="M64.31,102.11A12.6,12.6,0,0,0,52.2,92.992H19.126a4.844,4.844,0,0,0-4.844,4.844v30.817H10.8A10.8,10.8,0,0,0,0,139.45v18.83H1.994a15.894,15.894,0,0,1,30.9,0h7.29a18.491,18.491,0,0,1,32.061-11.441V135.41a40.31,40.31,0,0,0-1.568-11.131Zm-8.464,17.706-5.056,3.049,7.655,14.572H44.76l-6.351-8.785H25.552v-27.66H52.2a4.621,4.621,0,0,1,4.42,3.328l6.369,22.167a31.958,31.958,0,0,1,.958,4.593Z" transform="translate(0 0)" fill="#fff"/>
    <path id="パス_12324" data-name="パス 12324" d="M197.3,308.3a13.584,13.584,0,1,0,13.577,13.59A13.589,13.589,0,0,0,197.3,308.3Zm0,18.357a4.774,4.774,0,1,1,4.767-4.768A4.78,4.78,0,0,1,197.3,326.654Z" transform="translate(-138.63 -162.472)" fill="#fff"/>
    <path id="パス_12325" data-name="パス 12325" d="M352.273,233.541l-20.318-35.556-8.289-.634v35.335a16.2,16.2,0,0,0,16.2,16.2H369.88v-10.9Z" transform="translate(-244.243 -78.75)" fill="#fff"/>
    <path id="パス_12326" data-name="パス 12326" d="M193.709,177.653l-7.162,4.931a1.581,1.581,0,1,0,1.793,2.6l7.162-4.933a1.58,1.58,0,1,0-1.793-2.6Z" transform="translate(-140.255 -63.675)" fill="#fff"/>
  </g>
</svg>
